Patient4_TMGait_0pt4_01_right_37_EMG.mot
version=1
nRows=40
nColumns=33
inDegrees=no
endheader
time	1LAddLong	2LGlutMax	3LGlutMed	4LIliopsoas	5LSemiMemb	6LBicFemLong	7LRecFem	8LVastMed	9LVastLat	10LGasMed	11LTibAnt	12lTibPost	13LPeroneusLong	14LSol	15LExtDigLong	16LFlexDigLong	17RAddLong	18RGlutMax	19RGlutMed	20RIliopsoas	21RSemiMemb	22RBicFemLong	23RRecFem	24RVastMed	25RVastLat	26RGasMed	27RTibAnt	28RTibPost	29RPeroneusLong	30RSol	31RExtDigLong	32RFlexDigLong
48.71	0.001373	-0.33081	0.059662	-0.009155	0.007324	-0.011444	0.038757	0.009308	0.072937	0.022888	-0.17685	0.001526	0.050354	-0.098877	-0.010529	-0.018921	-0.080872	0.073395	0.16007	0.1001	0.13947	0.074768	0.25726	0.19989	-0.024109	-0.064087	0.006104	0.067902	0.88577	0.18951	-0.01358	0.010376
48.711	-0.003204	-0.36682	0.058746	0.00885	0.007629	0.000916	0.12833	0.004272	0.058136	0.030212	-0.09491	0.00351	0.000458	-0.052948	-0.18829	-0.029907	-0.05127	0.057983	-0.43869	0.080566	0.075226	0.003357	0.24841	0.14816	0.027466	-0.038452	-0.019226	0.003357	0.62439	0.62134	-0.005341	0.019684
48.712	-0.01236	-0.37796	0.057678	-0.008698	0.00473	-0.009308	0.12283	-0.003662	0.06012	0.021057	0.10254	0.00885	-0.018616	-0.028534	-0.12802	-0.033112	-0.027924	0.072937	-0.40115	0.10162	0.14374	-0.036163	0.13473	0.083923	0.061798	0.032959	-0.005341	0.025024	0.040588	0.20309	-0.005493	0.00351
48.713	-0.010376	-0.41077	0.087891	0.005493	0.003662	0.000763	0.11154	0.008087	0.052643	0.023499	0.001526	0.012054	-0.011139	-0.080109	0.68176	-0.029449	-0.014038	0.05127	-0.64606	0.10422	0.10208	-0.019836	0.19638	0.14969	0.028687	0.029449	0.035553	0.009613	-0.11581	-0.067291	-0.006866	-0.003967
48.714	-0.016479	-0.47638	0.05722	-0.002289	0.005188	-0.011749	0.14954	0.01358	0.060272	0.02121	-0.009918	0.016479	-0.047455	0.02655	-0.20035	-0.020905	-0.023193	-0.074005	-0.64835	0.009918	0.07309	-0.023193	0.2771	0.14664	0.02243	0.02655	0.066833	-0.015411	-0.38666	-0.12268	-0.004578	0.000763
48.715	-0.016174	-0.51575	0.067444	0.003204	0.006256	-0.000458	0.15305	0.008698	0.065002	0.00473	-0.27924	0.006561	0.001373	0.094452	-0.19302	-0.014954	-0.027466	-0.25589	-0.077362	-0.0354	-0.15961	-0.14648	0.20142	0.13748	0.032349	0.02533	0.072632	-0.034943	0.079041	-0.00946	-0.002136	-0.003357
48.716	-0.016022	-0.56107	0.053253	0.006256	0.005493	-0.011444	0.20187	-0.001984	0.068054	0.040283	-0.21942	0.009308	-0.026398	0.093079	-0.13001	-0.031891	-0.050507	-0.25543	-0.47058	-0.011292	-0.19943	-0.10468	0.1796	0.30838	0.072632	0.030823	0.070496	-0.043793	0.19821	0.059052	-0.001678	-0.007782
48.717	-0.00946	-0.56686	-0.00824	0.007477	0.00473	-0.010223	0.25055	0.005798	0.072021	0.048065	0.043793	0.004425	-0.11002	0.09903	-0.11322	-0.019226	-0.021515	-0.21423	-0.233	0.0177	-0.11063	-0.10864	0.22919	0.23529	-0.005798	0.015259	0.061035	-0.052795	-0.21881	0.10696	-0.004883	-0.014648
48.718	-0.005035	-0.64148	-0.023651	-0.011444	0.007935	-0.035553	0.26199	0.005798	0.063324	0.05661	0.022583	0.000916	-0.112	0.068512	0.33951	-0.027008	0.025787	-0.063019	-0.32379	-0.030212	-0.007935	-0.028534	0.19073	0.059509	-0.01709	-0.00061	0.045776	-0.048218	-0.17868	0.10757	-0.014496	-0.005951
48.719	-0.00061	-0.63583	-0.04303	0.017853	0.009613	-0.025177	0.31403	0.013733	0.066071	0.015869	-0.05188	0.009003	-0.020142	-0.091858	-0.25391	-0.030975	0.034485	-0.0354	-0.26062	-0.0383	0.000153	-0.011139	0.2002	0.046539	-0.033264	-0.010223	0.019226	-0.051575	0.11597	0.13931	-0.001373	-0.018311
48.72	0.000763	-0.71075	-0.059814	0.004578	0.005188	-0.021515	0.36301	0.012207	0.065613	0.005341	-0.0354	0.013123	-0.006104	-0.15259	0.27268	-0.022888	0.045776	-0.095978	0.11459	-0.047607	0.076447	-0.070801	0.094757	-0.00946	-0.042572	-0.084381	0.047913	-0.065613	-0.10925	0.061951	-0.001526	-0.021057
48.721	-0.005798	-0.73944	-0.060883	0.001221	0.005951	-0.024261	0.45288	0.014648	0.080109	0.003815	-0.036316	0.009308	-0.024719	-0.04715	-0.026245	-0.015106	0.038605	-0.094757	0.030365	-0.090942	0.040588	-0.11398	0.18005	0.066986	0.055237	-0.15442	0.024567	-0.082703	-0.10315	0.003662	-0.009766	-0.012665
48.722	-0.010071	-0.746	-0.047607	-0.018463	0.006409	-0.038605	0.59631	0.013428	0.077972	0.012817	0.20157	0.005341	-0.077515	-0.071716	0.072479	-0.024261	-0.013885	-0.001373	-0.3241	-0.10422	-0.34805	0.14206	0.2771	0.085449	0.025787	-0.054016	0.035095	-0.001984	0.011749	-0.13123	-0.005798	-0.018463
48.723	-0.005951	-0.73547	-0.083313	-0.007935	0.009155	-0.021057	0.78873	0.010071	0.067596	0.040283	0.35965	0.003662	-0.10437	-0.091705	0.6192	-0.048523	-0.078888	0.019226	-0.44449	-0.030212	-0.32669	0.27084	0.33615	0.013733	-0.022125	0.070343	0.00824	0.035706	0.20584	-0.22675	-0.003967	-0.016479
48.724	-0.011749	-0.79987	-0.083923	-0.005035	0.00824	-0.02594	0.83267	0.009918	0.045776	0.037842	0.001831	0.002899	-0.10117	-0.001221	0.059204	-0.036926	-0.032959	0.023041	-0.41428	-0.002136	0.046692	0.11719	0.23086	-0.083313	-0.064545	0.075531	0.002899	-0.045013	0.32715	-0.21225	-0.006104	-0.015259
48.725	-0.010071	-0.802	-0.10056	-0.009003	0.00824	-0.024872	0.61981	0.016479	0.036469	0.031738	-0.38025	-0.002441	-0.006104	0.086975	-0.021973	-0.037537	0.00412	0.090637	-0.44815	0.001984	0.12787	-0.11795	0.03006	-0.27039	-0.061951	-0.02121	0.032349	-0.075226	-0.051727	-0.12466	-0.003967	-0.019226
48.726	-0.016022	-0.77225	-0.092163	-0.00412	0.002289	-0.00824	0.58487	0.026093	0.033417	0.025787	-0.21713	-0.009613	0.019989	0.03067	-0.24109	-0.045319	-0.001221	0.19104	-0.63049	-0.016785	0.055695	-0.11414	-0.050812	-0.23209	-0.050659	-0.072632	-0.001526	0.016785	-0.16708	0.09613	-0.000916	-0.012817
48.727	-0.011292	-0.72647	-0.068359	-0.00412	0.004425	-0.000763	0.48202	0.028839	0.05127	0.009308	0.026855	0.000458	0.00351	0.021362	-0.13123	-0.031586	-0.007172	0.22125	-0.47287	-0.035248	0.12024	0.007324	-0.10941	-0.043335	-0.081787	-0.037689	-0.041809	-0.022736	0.15976	0.048218	-0.002747	-0.007782
48.728	-0.00824	-0.75363	-0.10269	0.032806	0.003967	0.021667	0.30884	0.036621	0.042725	0.033569	0.095062	-0.006866	-0.046844	0.012665	-0.1236	-0.029297	0.020294	0.29541	-0.39749	0.014954	0.17212	-0.082092	-0.068817	-0.05249	-0.1062	-0.10498	-0.016937	-0.025177	0.25589	0.019073	-0.003052	-0.005798
48.729	-0.00412	-0.71014	-0.084686	0.026398	0.005188	0.017853	0.17685	0.039825	0.035095	0.032501	0.064545	-0.011444	-0.033875	-0.070648	-0.17136	-0.035248	0.027161	0.40192	-0.38681	0.012207	-0.022278	-0.12116	-0.14648	0.082092	-0.009308	-0.059967	0.0177	-0.021667	0.19196	0.08255	-0.000153	-0.021667
48.73	-0.008392	-0.6485	-0.097046	0.00946	0.001678	0.003662	0.029144	0.027771	0.031281	0.025787	-0.049133	-0.009766	-0.001068	-0.12558	-0.36529	-0.022736	0.031281	0.35477	-0.46112	0.000153	-0.27832	-0.18555	-0.23987	0.066376	-0.068207	-0.068359	0.037994	-0.051575	-0.054626	-0.018921	-0.000916	-0.023499
48.731	-0.02243	-0.63049	-0.13596	-0.010223	0.017395	0.00412	-0.13275	0.028229	0.040131	0.044708	-0.028839	-0.013275	-0.028687	-0.12009	-0.20706	-0.031586	-0.003357	0.20218	-0.36209	0.000153	-0.52231	-0.073395	-0.1799	0.17609	0.002441	-0.082703	0.042725	-0.19287	0.15503	-0.03006	0.002441	-0.022125
48.732	-0.08255	-0.57632	-0.13351	-0.044098	0.010681	0.007172	-0.16907	0.019684	0.070496	0.051575	0.011139	-0.001068	-0.052795	-0.077515	0.029755	-0.029449	-0.018311	0.082245	-0.52109	-0.062866	-0.27039	-0.070343	0.007019	0.16098	0.017242	0.02243	0.058289	0.018005	-0.09613	0.22858	-0.00061	-0.018005
48.733	-0.054626	-0.53863	-0.14526	-0.004425	0.001373	0.018768	0.16357	0.003357	0.10178	0.035553	-0.029449	-0.001678	-0.042725	-0.081482	0.006714	-0.024261	-0.00412	-0.032349	-0.32288	-0.10925	0.12039	-0.085602	0.031433	0.15015	0.068665	0.10422	0.037842	0.093231	-0.050201	0.26382	-0.003052	-0.022888
48.734	-0.003204	-0.48401	-0.18234	-0.009766	0.000305	0.015564	0.39246	0.010376	0.10391	0.044556	0.011902	0.011139	-0.072937	-0.040131	0.031586	-0.024414	0.010986	0.030365	-0.071869	-0.11597	-0.077362	-0.10178	-0.022278	0.16357	0.077209	0.074158	0.024414	0.001831	0.062103	0.34576	0.003357	-0.031586
48.735	0.002594	-0.47501	-0.20828	-0.018616	0.005341	0.034943	0.41641	0.007324	0.11871	0.048676	0.012512	0.003662	-0.095367	0.058899	0.19379	-0.032501	-0.001221	0.081329	-0.63538	-0.077362	-0.13672	-0.04303	0.02655	0.1503	0.075531	0.070953	-0.00351	-0.062408	0.22308	0.35538	-0.001221	-0.016327
48.736	-0.007629	-0.44891	-0.15564	0.019989	0.003967	0.019684	0.39215	0.00824	0.10407	0.032043	0.10712	0.009003	-0.1265	0.11383	0.27008	-0.012054	-0.024719	0.071106	-0.82214	-0.011749	0.19959	0.042267	-0.001831	0.13443	0.011292	-0.053864	-0.010681	-0.11017	0.46051	-0.12848	-0.003815	-0.024719
48.737	-0.005951	-0.39825	-0.11765	0.003967	0.010529	0.007477	0.42038	0.013428	0.097504	0.040741	0.22888	0.005493	-0.089569	0.013428	0.25177	0.001068	-0.010223	0.14755	-0.70114	0.045471	0.29022	0.046844	0.085754	0.10391	-0.017242	-0.085144	-0.032349	-0.32532	0.5661	-0.89859	0.001068	-0.019989
48.738	-0.009766	-0.3273	-0.11169	-0.013885	0.00351	0.019379	0.38071	0.011139	0.12482	0.03479	0.26993	0.009155	-0.090942	-0.046997	0.2066	0.010223	-0.00824	0.096436	-0.16937	0.1033	0.26886	0.14847	0.10727	0.098724	-0.040741	-0.002899	-0.012817	0.35446	-0.080719	-0.71793	-0.003357	-0.013733
48.739	-0.008087	-0.32516	-0.12543	-0.032654	-0.002289	0.009308	0.25925	0.011139	0.12604	0.032959	0.18219	0.011749	-0.038147	0.087433	0.12314	0.01297	-0.010376	0.05249	0.22949	0.22308	0.007629	0.38544	0.10346	0.029449	-0.054779	0.057526	-0.000763	0.13016	-0.2449	-0.23117	-0.006409	-0.014038
48.74	-0.001831	-0.2681	-0.11124	-0.035553	-0.001373	0.00824	0.16769	0.010834	0.12817	0.028687	0.13489	0.007935	0.004578	0.070496	-0.082245	0.009613	0.007172	0.085297	0.059052	0.15366	-0.16327	0.37109	0.15457	0.022278	-0.089874	0.11551	-0.000153	0.065765	0.076752	0.075378	-0.002899	-0.023499
48.741	-0.005493	-0.19394	-0.14511	-0.009155	0.00351	0.001526	-0.10742	0.004272	0.10986	0.024109	0.083313	0.019073	-0.010223	0.061035	-0.20905	-0.019684	0.043488	0.15472	-0.23758	0.058289	-0.20615	0.050049	0.15472	-0.028229	-0.095673	0.068665	0.026093	0.037689	0.094604	0.53696	-0.004272	-0.024719
48.742	-0.003357	-0.14114	-0.19424	-0.016937	0.001831	-0.007935	-0.1622	-0.006104	0.096893	-0.024567	-0.20325	0.014343	0.064697	0.13504	-0.057831	-0.018921	0.060577	0.20538	-0.18616	-0.012054	-0.23086	-0.14191	0.062714	-0.068359	-0.053864	0.0354	0.033722	0.014191	-0.1973	0.51376	-0.004578	-0.023804
48.743	0.002747	-0.068817	-0.1944	0.015259	0.001526	0.003357	0.0383	-0.009308	0.081329	-0.00885	-0.13596	0.02243	0.06073	0.12344	-0.077515	-0.016022	0.019531	0.11383	-0.09079	-0.03891	0.26398	-0.21088	0.001831	0.006256	0.015106	0.032501	0.01358	-0.026093	-0.37109	0.26199	-0.001373	-0.019226
48.744	-0.001984	-0.012817	-0.20264	0.012207	0.007782	0.023956	0.095367	-0.01358	0.075684	0.022278	-0.20798	0.019684	-0.011292	0.14771	-0.14938	-0.021057	-0.013123	0.1474	-0.18234	-0.04425	0.45166	-0.16739	-0.014343	0.046387	0.017548	0.038147	-0.007629	0.00946	-0.3183	-0.005341	-0.001984	-0.014038
48.745	-0.002441	-0.00061	-0.1973	-0.001373	0.005035	0.015411	0.035858	-0.013275	0.06958	0.053711	-0.081787	0.018463	-0.059967	0.11673	0.033722	-0.010529	-0.000916	0.15182	0.063934	-0.028534	0.18249	-0.14358	-0.066376	-0.036926	-0.003052	0.042572	0.011139	-0.012817	-0.03952	0.090485	-0.002747	-0.010071
48.746	-0.002289	0.025024	-0.2034	0.03418	0.005341	-0.00061	0.034943	-0.015564	0.045776	0.059052	0.15564	0.007324	-0.089111	0.11627	0.32013	-0.019073	-0.022278	0.27939	0.29266	0.019989	-0.10681	0.035095	-0.085602	-0.068512	0.064087	0.031738	0.005493	0.004272	0.28061	0.19348	-0.003357	-0.00885
48.747	0.001526	0.017853	-0.17075	0.016022	0.000305	-0.000305	0.24063	-0.02121	0.014191	0.023804	0.12024	0.003967	-0.049896	0.085907	0.61005	-0.015717	-0.043335	0.33005	0.62882	0.00885	-0.3125	0.21729	0	0.008545	0.065918	0.016785	-0.015869	0.035095	0.35004	0.037384	-0.003967	-0.017395
48.748	-0.001831	0.041962	-0.15656	0.000305	0.003662	-0.011444	0.37277	-0.027161	0.014496	0.012512	-0.094757	-0.002136	0.008545	0.017242	0.056915	-0.016022	-0.042114	0.45029	0.27985	-0.090179	-0.041046	0.20386	0.008545	0.015259	0.04364	0.026855	-0.035706	-0.002747	0.28381	-0.11704	-0.002899	-0.016937
48.749	-0.005798	0.079651	-0.18204	-0.029602	0.001526	-0.009613	0.42038	-0.030212	0.013123	0.029144	-0.081635	-0.014343	-0.048676	-0.02243	-0.34073	-0.02182	-0.004272	0.53619	-0.17609	-0.1062	0.031891	0.30594	0.012817	-0.009308	0.008392	0.039825	-0.12054	-0.036774	0.26276	-0.22415	-0.002899	-0.021515
